HIERARCHY
ROOT Hips
{
	OFFSET 0.000000 0.000000 0.000000
	CHANNELS 6 Xposition Yposition Zposition Xrotation Yrotation Zrotation
	JOINT LeftUpLeg_virtual
	{
		OFFSET 0.000000 0.000000 0.000000
		CHANNELS 3 Xrotation Yrotation Zrotation
		JOINT LeftUpLeg
		{
			OFFSET 10.205400 -3.823500 0.155100
			CHANNELS 3 Xrotation Yrotation Zrotation
			JOINT LeftLeg
			{
				OFFSET 0.708757 -12.982077 0.567790
				CHANNELS 3 Xrotation Yrotation Zrotation
				JOINT LeftFoot
				{
					OFFSET -0.708756 -10.717838 -2.184338
					CHANNELS 3 Xrotation Yrotation Zrotation
					JOINT LeftToeBase
					{
						OFFSET 0.108149 -7.191104 7.560241
						CHANNELS 3 Xrotation Yrotation Zrotation
						JOINT LeftToe_End
						{
							OFFSET 0.070230 0.081724 4.490308
							CHANNELS 3 Xrotation Yrotation Zrotation
							End Site
							{
								OFFSET 0 0 0
							}
						}
					}
				}
			}
		}
	}
	JOINT RightUpLeg_virtual
	{
		OFFSET 0.000000 0.000000 0.000000
		CHANNELS 3 Xrotation Yrotation Zrotation
		JOINT RightUpLeg
		{
			OFFSET -10.205400 -3.823500 0.005500
			CHANNELS 3 Xrotation Yrotation Zrotation
			JOINT RightLeg
			{
				OFFSET -0.708756 -12.982134 0.610632
				CHANNELS 3 Xrotation Yrotation Zrotation
				JOINT RightFoot
				{
					OFFSET 0.708754 -10.717769 -1.945823
					CHANNELS 3 Xrotation Yrotation Zrotation
					JOINT RightToeBase
					{
						OFFSET -0.108140 -7.191069 7.372968
						CHANNELS 3 Xrotation Yrotation Zrotation
						JOINT RightToe_End
						{
							OFFSET -0.070227 0.081735 4.479403
							CHANNELS 3 Xrotation Yrotation Zrotation
							End Site
							{
								OFFSET 0 0 0
							}
						}
					}
				}
			}
		}
	}
	JOINT Spine_virtual
	{
		OFFSET 0.000000 0.000000 0.000000
		CHANNELS 3 Xrotation Yrotation Zrotation
		JOINT Spine
		{
			OFFSET 0.000000 6.876099 0.125700
			CHANNELS 3 Xrotation Yrotation Zrotation
			JOINT Spine1
			{
				OFFSET 0.000000 5.730043 0.104720
				CHANNELS 3 Xrotation Yrotation Zrotation
				JOINT Spine1_split
				{
					OFFSET 0.000000 5.730043 0.104720
					CHANNELS 3 Xrotation Yrotation Zrotation
					JOINT Spine2
					{
						OFFSET 0.000000 5.730043 0.104720
						CHANNELS 3 Xrotation Yrotation Zrotation
						JOINT Neck_virtual
						{
							OFFSET 0.000000 0.000000 0.000000
							CHANNELS 3 Xrotation Yrotation Zrotation
							JOINT Neck
							{
								OFFSET 0.000000 10.314075 0.188496
								CHANNELS 3 Xrotation Yrotation Zrotation
								JOINT Head
								{
									OFFSET 0.000000 7.643700 -2.377400
									CHANNELS 3 Xrotation Yrotation Zrotation
									JOINT HeadTop_End
									{
										OFFSET 0.000000 43.788605 -13.619600
										CHANNELS 3 Xrotation Yrotation Zrotation
										End Site
										{
											OFFSET 0 0 0
										}
									}
								}
							}
						}
						JOINT LeftShoulder_virtual
						{
							OFFSET 0.000000 0.000000 0.000000
							CHANNELS 3 Xrotation Yrotation Zrotation
							JOINT LeftShoulder
							{
								OFFSET 2.196100 4.412489 0.087492
								CHANNELS 3 Xrotation Yrotation Zrotation
								JOINT LeftShoulder_split
								{
									OFFSET 2.196100 4.412489 0.087492
									CHANNELS 3 Xrotation Yrotation Zrotation
									JOINT LeftArm
									{
										OFFSET 8.771219 -2.981674 -0.026999
										CHANNELS 3 Xrotation Yrotation Zrotation
										JOINT LeftForeArm
										{
											OFFSET 8.512804 0.000000 -0.000000
											CHANNELS 3 Xrotation Yrotation Zrotation
											JOINT LeftHand
											{
												OFFSET 18.484802 0.000000 -0.000000
												CHANNELS 3 Xrotation Yrotation Zrotation
												End Site
												{
													OFFSET 0 0 0
												}
											}
										}
									}
								}
							}
						}
						JOINT RightShoulder_virtual
						{
							OFFSET 0.000000 0.000000 0.000000
							CHANNELS 3 Xrotation Yrotation Zrotation
							JOINT RightShoulder
							{
								OFFSET -2.196100 4.412496 0.070690
								CHANNELS 3 Xrotation Yrotation Zrotation
								JOINT RightShoulder_split
								{
									OFFSET -2.196100 4.412496 0.070690
									CHANNELS 3 Xrotation Yrotation Zrotation
									JOINT RightArm
									{
										OFFSET -8.771282 -2.981682 -0.094208
										CHANNELS 3 Xrotation Yrotation Zrotation
										JOINT RightForeArm
										{
											OFFSET -8.494598 0.000000 0.000000
											CHANNELS 3 Xrotation Yrotation Zrotation
											JOINT RightHand
											{
												OFFSET -18.483803 0.000000 0.000001
												CHANNELS 3 Xrotation Yrotation Zrotation
												End Site
												{
													OFFSET 0 0 0
												}
											}
										}
									}
								}
							}
						}
					}
				}
			}
		}
	}
}
MOTION
Frames: 8
Frame Time: 0.03333333
0.136371 32.539608 -20.802923 0.000000 0.000000 0.000000 173.864542 -66.342215 176.395946 -25.487331 9.769699 20.990536 36.731542 -4.715230 -5.125245 -11.603180 -0.389550 -0.559458 2.982530 6.971575 -11.775919 0.000000 0.000000 0.000000 173.293333 -65.218259 176.213020 0.491108 -9.496911 9.972499 15.560254 11.281374 -0.840223 -17.741567 1.738016 -6.203305 -2.243404 -13.486302 -2.080277 0.000000 0.000000 0.000000 172.842527 -66.590117 174.945050 3.511900 2.569266 4.075284 -2.793366 1.410021 -2.322014 0.688913 -1.356677 0.300714 0.000000 0.000000 0.000000 -4.909659 1.661455 -2.005296 1.858663 19.783482 7.173403 5.481692 27.668688 -15.513438 0.000000 0.000000 0.000000 -5.019861 2.238573 -2.181679 0.847630 -0.004245 0.929198 -0.399004 -1.048740 -1.059061 12.825986 0.173470 -67.067793 7.667407 -21.443224 -7.997121 0.000000 0.000000 0.000000 -4.214794 1.917651 -2.771872 2.708192 -5.333002 17.658938 -5.079192 -0.790079 -0.474033 10.724685 32.901609 54.001514 15.094672 29.872082 -1.161291 0.000000 0.000000 0.000000 
-0.144980 32.693066 -21.382048 0.000000 0.000000 0.000000 173.649855 -61.055129 176.224290 -25.403118 2.345931 15.888451 36.926110 -4.930133 -4.240693 -10.087174 0.491380 -0.840924 1.050303 7.817718 -12.638393 0.000000 0.000000 0.000000 173.113945 -59.206539 176.000151 1.159074 -7.537658 11.734349 15.964727 14.170601 0.214761 -17.520250 1.441373 -7.649299 -3.084020 -12.948782 -3.336178 0.000000 0.000000 0.000000 173.106432 -60.845832 174.913918 3.766767 3.193381 4.021628 -2.697669 1.913873 -2.422023 0.750004 -1.095583 0.401392 0.000000 0.000000 0.000000 -4.799965 2.119443 -2.190475 1.820253 18.074470 7.102475 4.706132 25.218342 -14.358755 0.000000 0.000000 0.000000 -4.980673 2.699642 -2.277222 0.769359 -0.146534 1.275720 -0.120032 -1.136899 -0.877963 13.861782 1.048343 -68.638121 8.696160 -20.357924 -8.073331 0.000000 0.000000 0.000000 -4.116478 2.362924 -2.905745 2.716527 -5.587008 17.701893 -4.994975 -1.036828 -0.289608 9.850610 35.009152 53.975283 15.310328 28.888446 -1.580006 0.000000 0.000000 0.000000 
-0.451176 32.893990 -21.988653 0.000000 0.000000 0.000000 173.363124 -55.883214 175.990220 -26.009709 -4.398392 10.681570 35.789887 -5.449207 -3.162092 -8.661918 0.834869 -1.568873 -2.788553 8.822702 -13.385888 0.000000 0.000000 0.000000 173.132455 -53.397128 176.103901 2.371221 -6.028791 13.322356 16.954261 16.621207 1.229516 -18.056100 1.355427 -9.899295 -2.682540 -12.250895 -4.422071 0.000000 0.000000 0.000000 173.336117 -55.267995 174.941212 4.011226 3.648380 3.665958 -2.511402 2.293741 -2.303795 0.846018 -0.727771 0.420753 0.000000 0.000000 0.000000 -4.567944 2.488506 -2.165249 1.799718 16.059079 6.642001 3.401573 21.922102 -12.545232 0.000000 0.000000 0.000000 -4.855373 3.062322 -2.137417 0.689507 -0.260731 1.495738 0.167859 -1.315112 -0.734277 14.622911 1.660063 -70.172243 9.447480 -18.466559 -8.263502 0.000000 0.000000 0.000000 -3.951965 2.702141 -2.796474 2.735444 -5.910643 17.547712 -4.873554 -1.200974 -0.058747 8.816459 37.330730 54.261133 15.359762 27.641291 -1.975363 0.000000 0.000000 0.000000 
-0.780940 33.093220 -22.576731 0.000000 0.000000 0.000000 173.297650 -50.626581 176.043959 -27.328208 -9.812428 6.060774 33.901801 -6.247905 -2.194459 -7.410082 0.734567 -2.768844 -6.563706 9.813406 -14.457257 0.000000 0.000000 0.000000 173.323809 -47.848272 176.411301 3.723489 -4.858738 14.586967 18.736092 18.998231 2.074623 -18.364395 1.541135 -12.226934 -2.406398 -11.419098 -5.358528 0.000000 0.000000 0.000000 173.650101 -49.953931 175.171444 4.306233 3.902061 3.079520 -2.245587 2.531884 -1.999420 0.994403 -0.267149 0.310520 0.000000 0.000000 0.000000 -4.222659 2.742957 -1.945941 1.829242 13.766089 5.853393 1.816341 17.896803 -10.290908 0.000000 0.000000 0.000000 -4.654483 3.307856 -1.797173 0.613281 -0.264477 1.552703 0.489559 -1.623221 -0.630405 15.234967 2.144660 -71.491768 9.853634 -16.340247 -8.551193 0.000000 0.000000 0.000000 -3.737560 2.914105 -2.479867 2.769307 -6.299351 17.156602 -4.684373 -1.206720 0.239507 7.649806 39.663325 54.951054 15.282255 26.495415 -2.380971 0.000000 0.000000 0.000000 
-1.139992 33.252007 -23.261961 0.000000 0.000000 0.000000 173.410894 -45.263688 176.303097 -29.466778 -13.603079 2.450873 32.117120 -7.294108 -1.551006 -5.558337 0.447083 -4.789382 -7.929774 10.499769 -16.231386 0.000000 0.000000 0.000000 173.614202 -42.680196 176.769899 4.867963 -3.767348 15.417933 20.627422 21.768574 2.681983 -17.926583 2.098670 -13.734050 -3.275876 -10.495793 -6.129118 0.000000 0.000000 0.000000 174.040651 -44.909696 175.561912 4.677186 4.001826 2.406247 -1.919501 2.649513 -1.578287 0.951382 0.245098 0.134095 0.000000 0.000000 0.000000 -3.828022 2.877369 -1.585229 1.881694 11.255468 4.867381 0.245048 13.369229 -7.854146 0.000000 0.000000 0.000000 -4.390765 3.449551 -1.331773 0.553457 -0.101222 1.435698 0.796802 -2.057974 -0.582859 15.845390 2.593120 -72.442318 9.967023 -14.619827 -8.871839 0.000000 0.000000 0.000000 -3.481916 2.997233 -2.043747 2.836165 -6.729036 16.551326 -4.399030 -1.069095 0.526809 6.496649 41.823191 55.953746 15.117773 25.719658 -2.827701 0.000000 0.000000 0.000000 
-1.499702 33.358719 -24.012114 0.000000 0.000000 0.000000 173.627630 -40.017443 176.660015 -31.898933 -15.868047 -0.125511 30.479538 -8.359911 -1.237173 -3.153306 0.214957 -7.429251 -6.656727 10.670446 -18.292322 0.000000 0.000000 0.000000 173.896124 -37.847970 176.998738 5.874363 -2.594848 15.794625 22.174098 24.896653 2.978990 -16.973240 3.076534 -14.521595 -5.195424 -9.539398 -6.440233 0.000000 0.000000 0.000000 174.484422 -40.166027 176.084326 5.154842 3.980377 1.778353 -1.558815 2.680819 -1.127806 0.712188 0.683316 -0.084598 0.000000 0.000000 0.000000 -3.431532 2.899283 -1.175259 1.952709 8.667894 3.822840 -1.114246 8.594804 -5.441861 0.000000 0.000000 0.000000 -4.083464 3.490891 -0.848622 0.510538 0.248760 1.165079 1.174864 -2.556113 -0.508001 16.531544 3.081065 -72.962902 9.897292 -13.757207 -9.146591 0.000000 0.000000 0.000000 -3.208076 2.972138 -1.593691 2.897639 -7.148139 15.791022 -4.011338 -0.817217 0.848336 5.480448 43.693335 57.086851 14.891163 25.373859 -3.298172 0.000000 0.000000 0.000000 
-1.837845 33.409515 -24.913782 0.000000 0.000000 0.000000 173.897368 -35.120478 177.057956 -33.969317 -16.678548 -1.686120 28.497001 -9.147606 -1.283797 -1.216476 0.135595 -9.915747 -4.912828 10.443235 -19.596902 0.000000 0.000000 0.000000 174.126548 -33.185372 177.140205 6.934804 -1.376278 15.737036 22.966766 27.901972 3.115234 -16.315770 4.371467 -15.392021 -7.252427 -8.629908 -6.032412 0.000000 0.000000 0.000000 174.919847 -35.723003 176.618324 5.721563 3.894966 1.257850 -1.188569 2.650964 -0.733416 0.451353 0.936359 -0.310307 0.000000 0.000000 0.000000 -3.064819 2.830519 -0.801440 2.048752 6.144813 2.837105 -2.127932 3.926983 -3.234661 0.000000 0.000000 0.000000 -3.747557 3.454850 -0.440295 0.486236 0.695321 0.794376 1.625039 -2.968063 -0.481293 17.231691 3.568043 -73.077731 9.776468 -13.740899 -9.331827 0.000000 0.000000 0.000000 -2.931269 2.875138 -1.225705 2.920575 -7.502955 15.005914 -3.561124 -0.542155 1.199580 4.784120 45.238682 58.095847 14.661580 25.461405 -3.806090 0.000000 0.000000 0.000000 
-2.135154 33.422283 -25.948919 0.000000 0.000000 0.000000 174.065527 -30.802254 177.253094 -35.291065 -16.256219 -2.497178 25.860286 -9.416732 -1.608261 -0.644625 0.329283 -11.334789 -4.031089 10.018889 -19.912986 0.000000 0.000000 0.000000 174.216611 -28.840863 177.100139 8.263365 -0.110277 15.180782 22.891756 30.492020 3.307448 -16.356496 5.751208 -16.667434 -8.686237 -7.774957 -4.961206 0.000000 0.000000 0.000000 175.266452 -31.673056 177.017521 6.321027 3.787339 0.886198 -0.825010 2.588471 -0.446298 0.207407 0.967185 -0.278578 0.000000 0.000000 0.000000 -2.765791 2.704268 -0.522767 2.166262 3.826931 2.003169 -2.768287 -0.313543 -1.353025 0.000000 0.000000 0.000000 -3.373996 3.357338 -0.166774 0.485353 1.112586 0.401100 2.089359 -3.247720 -0.500373 17.902370 3.954037 -72.861050 9.710040 -14.184022 -9.414977 0.000000 0.000000 0.000000 -2.649382 2.742304 -0.986714 2.881501 -7.741297 14.327652 -3.051720 -0.259772 1.645260 4.625822 46.578581 58.712764 14.478825 25.944103 -4.350913 0.000000 0.000000 0.000000 
